<?xml version="1.0" encoding="UTF-8"?>
<!DOCTYPE svg PUBLIC "-//W3C//DTD SVG 1.1//EN" "http://www.w3.org/Graphics/SVG/1.1/DTD/svg11.dtd">
<!-- Creator: CorelDRAW -->
<svg xmlns="http://www.w3.org/2000/svg" xml:space="preserve" width="1.8cm" height="1cm" shape-rendering="geometricPrecision" text-rendering="geometricPrecision" image-rendering="optimizeQuality" fill-rule="evenodd" clip-rule="evenodd" viewBox="0 0 18 10" xmlns:xlink="http://www.w3.org/1999/xlink">
 <g id="Ebene_x0020_1">
  <metadata id="CorelCorpID_0Corel-Layer"/>
  <path fill="#EA1D26" d="M7.6141 4.978c-0.4772,2.8024 0.6168,4.1979 3.1041,4.2241 0.8819,0.0093 2.0318,-0.3422 2.0302,-0.3887l0.1678 -1.2208c-0.555,0.1967 -1.0214,0.3537 -1.6832,0.3413 -0.836,-0.0157 -1.6762,-0.2366 -1.6982,-1.7361 -0.0314,-2.1452 0.7768,-3.9344 2.7286,-3.9708 0.6681,-0.0124 0.9807,0.1097 1.5847,0.3484l0.2449 -1.3238c-0.4988,-0.2078 -0.8895,-0.3825 -2.046,-0.4035 -2.4648,-0.045 -4.028,1.7523 -4.4329,4.1299zm-3.6799 4.12l1.9109 -0.0011 1.4863 -8.0683 -1.937 0 -1.4602 8.0694z"/>
 </g>
</svg>