<svg id="Ebene_1" data-name="Ebene 1" xmlns="http://www.w3.org/2000/svg" viewBox="0 0 497.6 148.8"><title>Logo</title><path d="M102.85,26.92l-39.3,92.75L24.24,26.92h5l34.27,80.65L97.82,26.92Z" style="fill:#0b5d90"/><path d="M98.9,115h51.25L117.93,39,83.66,119.67h-5l39.31-92.75,39.3,92.75H98.9Z" style="fill:#0b5d90"/><path d="M472.67,134.56H190.57v-4.71H479.74" style="fill:#0b5d90"/><path d="M213.2,118.89H190.57V27.71h17.29q18.54,0,28.06,6.44t9.51,17.61q0,13.37-11.79,19.34,8.64,3,12.89,8.88a22.67,22.67,0,0,1,4.25,13.6q0,11.31-9.36,18.31T213.2,118.89Zm0-4.72q13.85,0,23.35-5t9.51-15.56q0-4.87-3.62-10.62t-11.16-8.41l-8.17-2.83,7.54-3.93a20.48,20.48,0,0,0,7-6.2,16.18,16.18,0,0,0,3.07-9.83q0-9.9-9.44-14.62t-23.42-4.72H195.28v81.75Z" style="fill:#0b5d90"/><path d="M322.11,109.61q-8.66,10.85-28.3,10.85T265.67,109.3q-8.49-11.16-8.49-36t8.49-36q8.49-11.16,28.14-11.16,22.8,0,31,14.93L286.26,73.3h-7.38l39.77-33.17q-6.91-9.29-24.84-9.28a45.29,45.29,0,0,0-13.2,1.65,23.85,23.85,0,0,0-9.83,6.13q-4.48,4.48-6.68,13T261.9,73.3q0,13,2.2,21.61t6.68,13a23.75,23.75,0,0,0,9.83,6.13,45.29,45.29,0,0,0,13.2,1.65q17.93,0,24.84-9.27Z" style="fill:#0b5d90"/><path d="M333.72,118.89V27.71h4.71l51.25,82.53V27.71h4.72v91.18h-4.72L338.43,36.2v82.69Z" style="fill:#0b5d90"/><path d="M468.2,109.61q-8.65,10.85-28.3,10.85T411.76,109.3q-8.49-11.16-8.49-36t8.49-36q8.49-11.16,28.14-11.16,22.8,0,31,14.93L432.36,73.3H425l39.77-33.17q-6.92-9.29-24.84-9.28a45.29,45.29,0,0,0-13.2,1.65,23.85,23.85,0,0,0-9.83,6.13q-4.49,4.48-6.68,13T408,73.3q0,13,2.2,21.61t6.68,13a23.75,23.75,0,0,0,9.83,6.13,45.29,45.29,0,0,0,13.2,1.65q17.93,0,24.84-9.27Z" style="fill:#0b5d90"/></svg>