<svg id="Ebene_1" data-name="Ebene 1" xmlns="http://www.w3.org/2000/svg" viewBox="0 0 240 240"><title>Zeichenfläche 13</title><path d="M139.51,45,75.91,195.12,12.31,45h8.14l55.46,130.5L131.36,45Z" style="fill:#0b5d90"/><path d="M133.12,187.49h82.94L163.91,64.62l-55.46,130.5h-8.14L163.91,45l63.6,150.09H133.12Z" style="fill:#0b5d90"/><path d="M239.91,120.07a120,120,0,0,0-120-120h0A119.87,119.87,0,0,0,22.53,49.94L75.91,175.53,131.36,45h8.15L75.91,195.12,17.55,57.41A119.44,119.44,0,0,0-.09,120.07h0a120,120,0,0,0,120,120h0a119.77,119.77,0,0,0,93.63-44.95H133.12v-7.63h82.94L163.91,64.61,108.45,195.12h-8.14L163.91,45l58.35,137.71a119.46,119.46,0,0,0,17.65-62.67Z" style="fill:#0b5d90"/><path d="M139.51,45h-8.15L75.91,175.53,22.53,49.94q-2.62,3.63-5,7.47L75.91,195.12Z" style="fill:#fff"/><path d="M100.31,195.12h8.14L163.91,64.61l52.15,122.88H133.12v7.63h80.42a121.91,121.91,0,0,0,8.72-12.38L163.91,45Z" style="fill:#fff"/></svg>